<svg id="Capa_1" enable-background="new 0 0 512 512" height="512" viewBox="0 0 512 512" width="512" xmlns="http://www.w3.org/2000/svg"><g id="XMLID_1324_"><path id="XMLID_1563_" d="m354 502h-304c-22.091 0-40-17.909-40-40v-412c0-22.091 17.909-40 40-40h304c22.091 0 40 17.909 40 40v412c0 22.091-17.909 40-40 40z" fill="#e1e3e9"/><g id="XMLID_2233_"><path id="XMLID_2234_" d="m54 458h296v-404h-296z" fill="#fff"/></g><path id="XMLID_2590_" d="m266 98h-128c-11.046 0-20-8.954-20-20v-68h168v68c0 11.046-8.954 20-20 20z" fill="#91def5"/><path id="XMLID_1063_" d="m102 154h200v56h-200z" fill="#f5737f"/><path id="XMLID_1349_" d="m472 502-30-77.092h60z" fill="#98a1b3"/><path id="XMLID_1348_" d="m442 50h60v374.908h-60z" fill="#ffcb7c"/><g id="XMLID_1160_"><path id="XMLID_1331_" d="m354 0h-304c-27.57 0-50 22.43-50 50v412c0 27.57 22.43 50 50 50h304c27.57 0 50-22.43 50-50v-159c0-5.523-4.478-10-10-10s-10 4.477-10 10v159c0 16.542-13.458 30-30 30h-304c-16.542 0-30-13.458-30-30v-412c0-16.542 13.458-30 30-30h58v24h-54c-5.522 0-10 4.477-10 10v404c0 5.523 4.478 10 10 10h296c5.522 0 10-4.477 10-10v-404c0-5.523-4.478-10-10-10h-54v-24h58c16.542 0 30 13.458 30 30v163c0 5.523 4.478 10 10 10s10-4.477 10-10v-163c0-27.57-22.43-50-50-50zm-14 64v384h-276v-384h44v14c0 16.542 13.458 30 30 30h128c16.542 0 30-13.458 30-30v-14zm-64 14c0 5.514-4.486 10-10 10h-128c-5.514 0-10-4.486-10-10v-58h148z"/><path id="XMLID_1339_" d="m302 248h-200c-5.522 0-10 4.477-10 10s4.478 10 10 10h200c5.522 0 10-4.477 10-10s-4.478-10-10-10z"/><path id="XMLID_1341_" d="m302 296h-88.117c-5.522 0-10 4.477-10 10s4.478 10 10 10h88.117c5.522 0 10-4.477 10-10s-4.478-10-10-10z"/><path id="XMLID_1347_" d="m157.883 296h-55.883c-5.522 0-10 4.477-10 10s4.478 10 10 10h55.883c5.522 0 10-4.477 10-10s-4.478-10-10-10z"/><path id="XMLID_1350_" d="m93.41 354c0 5.523 4.478 10 10 10h118.648c5.522 0 10-4.477 10-10s-4.478-10-10-10h-118.648c-5.522 0-10 4.477-10 10z"/><path id="XMLID_1351_" d="m302 344h-23.941c-5.522 0-10 4.477-10 10s4.478 10 10 10h23.941c5.522 0 10-4.477 10-10s-4.478-10-10-10z"/><path id="XMLID_1352_" d="m302 392h-88.117c-5.522 0-10 4.477-10 10s4.478 10 10 10h88.117c5.522 0 10-4.477 10-10s-4.478-10-10-10z"/><path id="XMLID_1360_" d="m157.883 392h-54.473c-5.522 0-10 4.477-10 10s4.478 10 10 10h54.473c5.522 0 10-4.477 10-10s-4.478-10-10-10z"/><path id="XMLID_1363_" d="m92 154v56c0 5.523 4.478 10 10 10h200c5.522 0 10-4.477 10-10v-56c0-5.523-4.478-10-10-10h-200c-5.522 0-10 4.477-10 10zm20 10h180v36h-180z"/><path id="XMLID_357_" d="m512 50c0-5.523-4.478-10-10-10h-60c-5.522 0-10 4.477-10 10v374.908c0 1.281.246 2.501.685 3.626l29.996 77.092c1.495 3.843 5.196 6.374 9.319 6.374s7.824-2.531 9.319-6.374l30-77.092h-.008c.439-1.125.688-2.346.688-3.626v-374.908zm-40 424.426-15.378-39.518h30.756zm20-59.518h-40v-354.908h40z"/><path id="XMLID_1369_" d="m394 248c-2.641 0-5.21 1.07-7.07 2.93s-2.93 4.44-2.93 7.07 1.069 5.21 2.93 7.07 4.44 2.93 7.07 2.93 5.21-1.07 7.069-2.93c1.86-1.86 2.931-4.44 2.931-7.07s-1.07-5.21-2.931-7.07c-1.859-1.86-4.439-2.93-7.069-2.93z"/></g></g></svg>